<?xml version="1.0" encoding="UTF-8"?>
<svg id="Layer_1" data-name="Layer 1" xmlns="http://www.w3.org/2000/svg" viewBox="0 0 3840 3840">
  <defs>
    <style>
      .cls-1 {
        fill: none;
        stroke: #19a34b;
        stroke-miterlimit: 10;
        stroke-width: 11px;
      }

      .cls-2 {
        fill: #19a34b;
      }
    </style>
  </defs>
  <g>
    <path class="cls-2" d="M2650.62,1746.13c-1.55-6.37-4.72-14.6-12-19.46-47.7-31.87-190.92,135.05-310.99,232.86-314.26,256.01-811.76,317-960.07,448.27-20.16,17.86-79.66,70.54-67.18,114.73,0,0,2.99,10.56,11.35,19.83,17.56,19.45,536.14,526.21,1040.57,225.94,336.61-200.36,474.66-645.63,298.32-1022.18ZM2357.62,2713.69c-445.37,265.11-903.23-182.29-918.72-199.48-7.4-8.18-10.03-17.51-10.03-17.51-11.01-39.02,41.51-85.52,59.33-101.29,130.93-115.91,570.18-169.76,847.64-395.79,106-86.36,232.45-233.72,274.57-205.58,6.43,4.3,9.23,11.56,10.6,17.16,155.69,332.47,33.82,725.58-263.38,902.49Z"/>
    <g>
      <path class="cls-2" d="M1619.63,2257.61c-18.23,25.2-271.28-48.71-327.42-221.7-46.92-144.57,77.02-255.57,7.94-369.3-57.86-95.26-191.92-94.97-187.63-118.14,5.03-27.12,194.51-58.54,269.69,29.88,72.51,85.27-33.93,196.59,13.32,375.78,52.31,198.39,240.49,280.84,224.1,303.49Z"/>
      <path class="cls-2" d="M1835.81,2142.2c-22.18,30.65-330.02-59.26-398.32-269.71-57.08-175.87,93.7-310.91,9.66-449.27-70.38-115.88-233.48-115.53-228.26-143.72,6.11-33,236.63-71.22,328.09,36.34,88.21,103.73-41.28,239.15,16.2,457.14,63.64,241.34,292.56,341.64,272.62,369.21Z"/>
      <path class="cls-2" d="M2373.98,1855.51c31.08-1.09,110.79-252.37-1.53-395.42-93.86-119.54-255.11-78.53-311.02-199.28-46.83-101.13,28.15-212.27,6.52-221.63-25.32-10.95-157.03,128.85-125.55,240.55,30.37,107.73,182.12,81.42,304.54,220.54,135.54,154.02,99.08,356.21,127.02,355.24Z"/>
      <path class="cls-2" d="M2157.65,1970.65c37.81-1.32,134.79-307.01-1.86-481.04-114.19-145.43-310.35-95.54-378.36-242.43-56.97-123.03,34.25-258.24,7.93-269.62-30.8-13.32-191.04,156.74-152.73,292.64,36.95,131.06,221.55,99.05,370.49,268.3,164.89,187.37,120.53,433.34,154.53,432.15Z"/>
    </g>
  </g>
  <g>
    <g>
      <g>
        <ellipse class="cls-2" cx="2024.5" cy="1919.17" rx="29.26" ry="18.73" transform="translate(-339.59 438.33) rotate(-11.41)"/>
        <path class="cls-2" d="M2005.91,1916.27c-12.75-5.45-20.51,6.28-41.96,9.98-6.46,1.11-37.53,5.53-42.55,7.07-.65.2-2.47.79-3.52,2.37-.79,1.18-1.12,2.66-.82,4.16l.39,1.91c.3,1.5,1.19,2.74,2.37,3.52.46.31,1.76,1.05,4.16.82,3.71-.36,20.13-4.04,42.38-9.58,21.51-.88,37.18-3.23,40.71-5.17,1.2-.66,3.8-2.82,4.94-4.67.26-.42.77-1.28.9-2.5.06-.54.03-1.1-.08-1.67l-.39-1.91c-1.34-1.27-3.51-3.05-6.53-4.34Z"/>
      </g>
      <g>
        <text/>
        <path class="cls-2" d="M1858.91,1806.05c2.82-2.64,14.91,4.64,21.88,14.61.64.92,8.13,11.93,6.64,23.99-.79,6.36-3.59,10.2-4.79,11.78-5.75,7.61-17.05,12.75-29.2,9.05-19.48-5.92-31.42-31.57-29.21-33.82,2.69-2.73,31.24,27.24,35.23,23.42,3.64-3.48-16.71-31.48-14.07-33.5,2.67-2.04,25.04,25.08,28.16,22.84,3.28-2.36-19.39-33.93-14.64-38.37Z"/>
        <path class="cls-2" d="M1942.2,1938.09c-.47,7.23-8.32,13.08-15.26,11.27-10.81-2.82-13.58-22.73-28.71-44.51-6.09-8.77-14.59-18.43-26.78-27.72-7.27-5.54-7.79-16.3-1.05-21.58.15-.11.29-.23.44-.34,7.07-5.54,17.84-1.79,20.98,7.26,5.59,16.08,12.8,27.68,19.2,35.96,15.09,19.53,31.9,28.63,31.18,39.67Z"/>
      </g>
    </g>
    <circle class="cls-1" cx="1920" cy="1920" r="182.89"/>
  </g>
</svg>